<?xml version="1.0" encoding="UTF-8"?>
<svg xmlns="http://www.w3.org/2000/svg" xmlns:xlink="http://www.w3.org/1999/xlink" viewBox="0 0 24 24" width="24px" height="24px">
<g id="surface22070934">
<path style=" stroke:none;fill-rule:nonzero;fill:rgb(0%,0%,0%);fill-opacity:1;" d="M 12.648438 12.179688 C 12.648438 13.433594 13.664062 14.453125 14.921875 14.453125 L 19.128906 14.453125 C 18.40625 16.796875 16.628906 18.578125 14.058594 19.050781 C 9.976562 19.808594 5.894531 16.832031 5.503906 12.699219 C 5.097656 8.421875 8.453125 4.820312 12.648438 4.820312 C 13.839844 4.820312 14.964844 5.113281 15.953125 5.628906 C 16.855469 6.097656 17.957031 5.910156 18.671875 5.191406 C 19.808594 4.054688 19.507812 2.140625 18.082031 1.40625 C 16.085938 0.382812 13.761719 -0.0976562 11.308594 0.171875 C 5.855469 0.769531 1.417969 5.203125 0.820312 10.65625 C 0.0351562 17.832031 5.632812 23.898438 12.648438 23.898438 C 20.226562 23.898438 23.324219 18.527344 23.953125 13.90625 C 24.242188 11.789062 22.546875 9.917969 20.410156 9.914062 L 14.921875 9.90625 C 13.667969 9.90625 12.648438 10.921875 12.648438 12.179688 Z M 12.648438 12.179688 "/>
</g>
</svg>
